<svg width="0" height="0" class="hidden">
  <symbol fill="none" xmlns="http://www.w3.org/2000/svg" viewBox="0 0 142 29" id="Logo">
    <g opacity="0.6">
      <path d="M21.29 12.79C20.8935 13.1901 20.5899 13.673 20.4007 14.2043C20.2115 14.7356 20.1415 15.3022 20.1956 15.8637L20.1768 15.8448C20.2324 16.5058 20.1436 17.171 19.9164 17.7939C19.6893 18.4169 19.3293 18.9827 18.8617 19.4517C18.3941 19.9207 17.83 20.2818 17.209 20.5096C16.5879 20.7374 15.9247 20.8265 15.2657 20.7707L15.2845 20.7896C14.4963 20.716 13.7045 20.8881 13.0173 21.2823C12.3301 21.6766 11.7809 22.2738 11.4445 22.9927C11.1081 23.7115 11.0009 24.5168 11.1376 25.299C11.2742 26.0811 11.6481 26.802 12.2081 27.3632C12.7682 27.9244 13.4872 28.2988 14.2671 28.4351C15.047 28.5715 15.8499 28.4633 16.5662 28.1252C17.2825 27.7871 17.8775 27.2357 18.2699 26.546C18.6624 25.8564 18.8332 25.0621 18.7591 24.2716L18.779 24.2905C18.7234 23.6295 18.8122 22.9643 19.0394 22.3413C19.2665 21.7184 19.6264 21.1526 20.0941 20.6836C20.5617 20.2145 21.1257 19.8535 21.7468 19.6257C22.3679 19.3979 23.0311 19.3087 23.6901 19.3645L23.6702 19.3456C24.3141 19.4037 24.9622 19.2978 25.5545 19.0378C26.1467 18.7777 26.6639 18.3719 27.0582 17.858C27.4525 17.3441 27.711 16.7386 27.8098 16.0978C27.9087 15.457 27.8447 14.8015 27.6237 14.192C27.4027 13.5826 27.032 13.039 26.5458 12.6116C26.0596 12.1842 25.4737 11.8868 24.8424 11.747C24.211 11.6072 23.5548 11.6295 22.9343 11.8118C22.3139 11.9941 21.7494 12.3306 21.2931 12.79H21.29Z" fill="#1D2130"></path>
      <path d="M13.5718 18.3151L13.5519 18.2962C14.112 18.3528 14.6776 18.2838 15.2079 18.0943C15.7381 17.9048 16.2198 17.5995 16.618 17.2004C17.0162 16.8013 17.321 16.3184 17.5103 15.7867C17.6997 15.2549 17.7688 14.6877 17.7128 14.1258L17.7327 14.1447C17.6771 13.4838 17.7659 12.8186 17.9931 12.1956C18.2202 11.5726 18.5802 11.0069 19.0478 10.5378C19.5154 10.0688 20.0795 9.70778 20.7005 9.47996C21.3216 9.25214 21.9848 9.16301 22.6438 9.21881L22.6239 9.19992C23.4123 9.27418 24.2042 9.10271 24.8918 8.7089C25.5794 8.3151 26.1292 7.71813 26.4661 6.99942C26.803 6.28072 26.9107 5.47527 26.7744 4.69292C26.6382 3.91058 26.2646 3.18945 25.7047 2.62787C25.1449 2.0663 24.4259 1.69162 23.6459 1.55496C22.8659 1.4183 22.0629 1.52629 21.3463 1.86422C20.6298 2.20215 20.0346 2.75356 19.642 3.44323C19.2494 4.13291 19.0784 4.92728 19.1525 5.71798L19.1336 5.69805C19.1895 6.35906 19.1007 7.02432 18.8737 7.64738C18.6466 8.27043 18.2866 8.83626 17.819 9.30534C17.3513 9.77442 16.7872 10.1354 16.166 10.3632C15.5448 10.591 14.8816 10.6799 14.2226 10.624L14.2414 10.6439C13.6813 10.5873 13.1157 10.6562 12.5854 10.8458C12.0551 11.0353 11.5735 11.3406 11.1753 11.7397C10.7771 12.1388 10.4723 12.6217 10.283 13.1534C10.0936 13.6851 10.0244 14.2524 10.0805 14.8143L10.0616 14.7954C10.1171 15.4563 10.0281 16.1214 9.80088 16.7443C9.57368 17.3672 9.21373 17.9328 8.74615 18.4018C8.27856 18.8708 7.71459 19.2319 7.09358 19.4598C6.47257 19.6876 5.80947 19.7769 5.15053 19.7213L5.16936 19.7402C4.38103 19.6659 3.58906 19.8374 2.90146 20.2312C2.21386 20.625 1.66411 21.222 1.3272 21.9407C0.990286 22.6594 0.882613 23.4648 1.01887 24.2472C1.15512 25.0295 1.52866 25.7506 2.08855 26.3122C2.64843 26.8738 3.3674 27.2485 4.14739 27.3851C4.92737 27.5218 5.7304 27.4138 6.44694 27.0759C7.16349 26.7379 7.75866 26.1865 8.15127 25.4969C8.54389 24.8072 8.71485 24.0128 8.64081 23.2221L8.66069 23.241C8.60506 22.58 8.69392 21.9148 8.92105 21.2919C9.14819 20.6689 9.50813 20.1032 9.97576 19.6341C10.4434 19.1651 11.0074 18.804 11.6285 18.5762C12.2496 18.3484 12.9128 18.2593 13.5718 18.3151Z" fill="#1D2130"></path>
      <path d="M6.55987 16.2089C6.95642 15.8089 7.26003 15.326 7.44902 14.7946C7.63802 14.2633 7.70774 13.6967 7.6532 13.1352L7.67308 13.1541C7.61741 12.493 7.70631 11.8276 7.93356 11.2044C8.16082 10.5813 8.52095 10.0154 8.98881 9.54637C9.45668 9.0773 10.021 8.71631 10.6423 8.48864C11.2637 8.26096 11.9271 8.17208 12.5863 8.2282L12.5664 8.20931C13.3544 8.28336 14.1461 8.1118 14.8334 7.71802C15.5207 7.32425 16.0701 6.72742 16.4068 6.00894C16.7435 5.29046 16.8511 4.4853 16.7148 3.70325C16.5786 2.9212 16.2052 2.20034 15.6455 1.63897C15.0858 1.0776 14.3671 0.703047 13.5874 0.566389C12.8077 0.429731 12.005 0.537622 11.2887 0.875346C10.5724 1.21307 9.97733 1.76419 9.58474 2.45354C9.19215 3.1429 9.0211 3.93694 9.09493 4.72738L9.0761 4.70849C9.13173 5.36946 9.04287 6.03464 8.81574 6.65761C8.5886 7.28059 8.22866 7.84633 7.76103 8.31537C7.29341 8.78441 6.72936 9.14544 6.10827 9.37326C5.48717 9.60108 4.82399 9.6902 4.16501 9.63441L4.18384 9.6533C3.53995 9.59538 2.8919 9.70142 2.29974 9.96159C1.70758 10.2218 1.19048 10.6276 0.796347 11.1416C0.402215 11.6556 0.143805 12.2611 0.0450646 12.9019C-0.0536755 13.5427 0.0104481 14.1981 0.231494 14.8075C0.45254 15.4168 0.823356 15.9604 1.30958 16.3877C1.7958 16.815 2.3817 17.1124 3.01298 17.2521C3.64427 17.3919 4.3005 17.3695 4.92089 17.1872C5.54128 17.0048 6.10574 16.6684 6.56196 16.2089H6.55987Z" fill="#1D2130"></path>
      <path d="M38.9695 5.74212H42.0768V20.9092H38.9695V5.74212Z" fill="#1D2130"></path>
      <path d="M43.8367 15.7157C43.8323 14.6258 44.1506 13.559 44.7511 12.6506C45.3517 11.7422 46.2075 11.0331 47.2103 10.6129C48.213 10.1928 49.3174 10.0806 50.3838 10.2906C51.4501 10.5005 52.4303 11.0232 53.2003 11.7924C53.9702 12.5616 54.4952 13.5426 54.7088 14.6113C54.9225 15.68 54.815 16.7883 54.4002 17.7957C53.9853 18.8031 53.2817 19.6644 52.3785 20.2704C51.4753 20.8764 50.413 21.1999 49.3263 21.1999C48.605 21.2082 47.8892 21.0721 47.2209 20.7997C46.5526 20.5273 45.9451 20.124 45.434 19.6134C44.9229 19.1028 44.5184 18.4951 44.2441 17.8258C43.9698 17.1566 43.8313 16.4393 43.8367 15.7157ZM51.7086 15.7157C51.6957 15.2459 51.5449 14.7903 51.2752 14.406C51.0056 14.0216 50.6289 13.7255 50.1924 13.5547C49.7558 13.3839 49.2788 13.346 48.8208 13.4456C48.3629 13.5453 47.9444 13.7781 47.6177 14.115C47.291 14.4519 47.0705 14.878 46.9839 15.3399C46.8973 15.8018 46.9483 16.279 47.1306 16.712C47.313 17.145 47.6185 17.5144 48.009 17.7741C48.3995 18.0339 48.8577 18.1724 49.3263 18.1724C49.6472 18.181 49.9664 18.1228 50.2638 18.0015C50.5612 17.8802 50.8303 17.6984 51.0541 17.4676C51.2779 17.2367 51.4516 16.9619 51.5643 16.6604C51.6769 16.3589 51.7261 16.0372 51.7086 15.7157Z" fill="#1D2130"></path>
      <path d="M67.2004 10.5211V20.3856C67.2004 23.8759 64.4864 25.3514 61.7316 25.3514C60.7617 25.4242 59.7905 25.2277 58.9246 24.7834C58.0587 24.3391 57.3314 23.6643 56.8226 22.8328L59.4738 21.2954C59.6877 21.7288 60.0284 22.0864 60.4504 22.3203C60.8724 22.5541 61.3556 22.6531 61.8352 22.604C62.1418 22.6466 62.4539 22.6196 62.7487 22.5248C63.0434 22.4301 63.313 22.2701 63.5378 22.0566C63.7625 21.8432 63.9365 21.5819 64.0469 21.2919C64.1574 21.0019 64.2014 20.6907 64.1757 20.3814V19.4317C63.8118 19.8782 63.3487 20.233 62.8234 20.4676C62.2981 20.7021 61.7253 20.8099 61.151 20.7823C59.7844 20.739 58.4882 20.1641 57.5367 19.1792C56.5853 18.1943 56.0532 16.8767 56.0532 15.5053C56.0532 14.1339 56.5853 12.8163 57.5367 11.8314C58.4882 10.8465 59.7844 10.2716 61.151 10.2284C61.7253 10.2007 62.2981 10.3085 62.8234 10.543C63.3487 10.7776 63.8118 11.1324 64.1757 11.579V10.5191L67.2004 10.5211ZM64.1767 15.5069C64.1976 15.0046 64.0682 14.5075 63.805 14.0797C63.5419 13.6518 63.1571 13.3127 62.7002 13.106C62.2433 12.8994 61.7351 12.8346 61.2412 12.92C60.7473 13.0054 60.2902 13.2372 59.9287 13.5854C59.5671 13.9336 59.3178 14.3824 59.2127 14.8739C59.1076 15.3655 59.1516 15.8773 59.339 16.3436C59.5264 16.8099 59.8486 17.2092 60.2642 17.4902C60.6798 17.7713 61.1697 17.9211 61.671 17.9205C61.9974 17.9434 62.3251 17.8974 62.6328 17.7855C62.9405 17.6737 63.2214 17.4984 63.4574 17.271C63.6935 17.0436 63.8795 16.7692 64.0033 16.4654C64.1272 16.1615 64.1863 15.835 64.1767 15.5069Z" fill="#1D2130"></path>
      <path d="M68.9602 15.7157C68.9558 14.6258 69.2741 13.559 69.8746 12.6506C70.4752 11.7422 71.331 11.0331 72.3337 10.6129C73.3365 10.1928 74.4409 10.0806 75.5073 10.2906C76.5736 10.5005 77.5538 11.0232 78.3238 11.7924C79.0937 12.5616 79.6187 13.5426 79.8323 14.6113C80.046 15.68 79.9385 16.7883 79.5237 17.7957C79.1088 18.8031 78.4052 19.6644 77.502 20.2704C76.5987 20.8764 75.5365 21.1999 74.4498 21.1999C73.7285 21.2082 73.0127 21.0721 72.3444 20.7997C71.6761 20.5273 71.0686 20.124 70.5575 19.6134C70.0464 19.1028 69.6419 18.4951 69.3676 17.8258C69.0933 17.1566 68.9548 16.4393 68.9602 15.7157ZM76.8321 15.7157C76.8192 15.2459 76.6684 14.7903 76.3987 14.406C76.1291 14.0216 75.7524 13.7255 75.3158 13.5547C74.8793 13.3839 74.4023 13.346 73.9443 13.4456C73.4864 13.5453 73.0679 13.7781 72.7412 14.115C72.4145 14.4519 72.194 14.878 72.1074 15.3399C72.0208 15.8018 72.0718 16.279 72.2542 16.712C72.4365 17.145 72.742 17.5144 73.1325 17.7741C73.523 18.0339 73.9812 18.1724 74.4498 18.1724C74.7707 18.181 75.0899 18.1228 75.3873 18.0015C75.6847 17.8802 75.9538 17.6984 76.1776 17.4676C76.4014 17.2367 76.5751 16.9619 76.6878 16.6604C76.8004 16.3589 76.8496 16.0372 76.8321 15.7157Z" fill="#1D2130"></path>
      <path d="M81.3885 7.73705C81.3885 7.3672 81.4979 7.00564 81.7028 6.69812C81.9076 6.39059 82.1988 6.1509 82.5395 6.00936C82.8801 5.86782 83.255 5.83079 83.6167 5.90294C83.9783 5.9751 84.3105 6.1532 84.5713 6.41474C84.832 6.67627 85.0096 7.00947 85.0815 7.37223C85.1535 7.73498 85.1166 8.11098 84.9754 8.45269C84.8343 8.7944 84.5954 9.08645 84.2888 9.29194C83.9822 9.49742 83.6217 9.6071 83.253 9.6071C82.76 9.60218 82.2886 9.40358 81.94 9.05394C81.5914 8.7043 81.3934 8.2315 81.3885 7.73705ZM81.7024 10.5211H84.8108V20.9103H81.6982L81.7024 10.5211Z" fill="#1D2130"></path>
      <path d="M98.228 15.7157C98.2639 16.4023 98.1641 17.0893 97.9344 17.7371C97.7047 18.3849 97.3496 18.9807 96.8895 19.4904C96.4294 20 95.8734 20.4135 95.2535 20.7068C94.6335 21.0002 93.9619 21.1678 93.2771 21.1999C92.7013 21.2314 92.1257 21.134 91.592 20.9147C91.0584 20.6955 90.5801 20.3599 90.1917 19.9322V25.0649H87.0844V10.5211H90.1917V11.4971C90.5802 11.0697 91.0586 10.7344 91.5922 10.5153C92.1259 10.2963 92.7014 10.1989 93.2771 10.2304C93.962 10.2624 94.6338 10.4299 95.2539 10.7233C95.874 11.0167 96.4301 11.4302 96.8902 11.94C97.3503 12.4498 97.7054 13.0459 97.935 13.6939C98.1646 14.3418 98.2642 15.029 98.228 15.7157ZM95.1206 15.7157C95.1085 15.2295 94.9536 14.7576 94.6754 14.3593C94.3973 13.9609 94.0081 13.6537 93.5567 13.476C93.1053 13.2984 92.6117 13.2582 92.1376 13.3606C91.6636 13.4629 91.2302 13.7033 90.8916 14.0515C90.5531 14.3997 90.3245 14.8403 90.2344 15.3182C90.1443 15.7961 90.1967 16.2901 90.3851 16.7382C90.5735 17.1864 90.8895 17.5689 91.2936 17.8378C91.6976 18.1067 92.1718 18.2501 92.6567 18.25C92.9896 18.2649 93.3219 18.209 93.6317 18.086C93.9416 17.9631 94.222 17.7758 94.4547 17.5365C94.6873 17.2972 94.8669 17.0113 94.9817 16.6975C95.0965 16.3837 95.1438 16.0491 95.1206 15.7157Z" fill="#1D2130"></path>
      <path d="M107.817 17.7925C107.817 20.182 105.746 21.1999 103.509 21.1999C102.606 21.282 101.698 21.0903 100.904 20.6496C100.11 20.2088 99.4661 19.5393 99.0555 18.7275L101.748 17.1901C101.856 17.5653 102.09 17.8917 102.41 18.1148C102.73 18.3379 103.117 18.4441 103.505 18.4158C104.25 18.4158 104.624 18.1871 104.624 17.7726C104.624 16.6287 99.5274 17.2321 99.5274 13.6379C99.5274 11.3722 101.434 10.2305 103.588 10.2305C104.398 10.2048 105.2 10.3974 105.91 10.7884C106.62 11.1793 107.213 11.7542 107.626 12.4531L104.975 13.8866C104.859 13.6145 104.665 13.3827 104.419 13.2202C104.172 13.0576 103.883 12.9715 103.588 12.9726C103.049 12.9726 102.717 13.1825 102.717 13.5539C102.722 14.7387 107.817 13.9485 107.817 17.7925Z" fill="#1D2130"></path>
      <path d="M119.168 10.5212V20.9103H116.06V19.9333C115.702 20.3644 115.247 20.7041 114.732 20.9244C114.217 21.1448 113.658 21.2396 113.099 21.201C111.007 21.201 109.228 19.7056 109.228 16.8984V10.5212H112.336V16.4419C112.31 16.6894 112.338 16.9395 112.418 17.1749C112.498 17.4104 112.628 17.6255 112.8 17.8053C112.971 17.9851 113.18 18.1252 113.411 18.216C113.642 18.3067 113.89 18.3459 114.137 18.3309C115.277 18.3309 116.063 17.6666 116.063 16.1911V10.5243L119.168 10.5212Z" fill="#1D2130"></path>
      <path d="M136.985 14.531V20.9093H133.878V14.8007C133.878 13.7618 133.381 13.0975 132.387 13.0975C131.351 13.0975 130.771 13.8247 130.771 15.0504V20.9093H127.664V14.8007C127.664 13.7618 127.167 13.0975 126.172 13.0975C125.137 13.0975 124.557 13.8247 124.557 15.0504V20.9093H121.45V10.5201H124.557V11.4751C124.879 11.0514 125.302 10.7155 125.787 10.4979C126.272 10.2803 126.803 10.188 127.333 10.2295C127.864 10.2034 128.394 10.3159 128.869 10.5561C129.345 10.7963 129.75 11.1559 130.046 11.6C130.39 11.1354 130.846 10.7661 131.371 10.5264C131.897 10.2867 132.474 10.1845 133.049 10.2295C135.427 10.2305 136.985 11.9337 136.985 14.531Z" fill="#1D2130"></path>
      <path d="M139.613 10.4572C140.887 10.4572 141.919 9.42164 141.919 8.14426C141.919 6.86689 140.887 5.83137 139.613 5.83137C138.34 5.83137 137.307 6.86689 137.307 8.14426C137.307 9.42164 138.34 10.4572 139.613 10.4572Z" fill="#1D2130"></path>
    </g>
  </symbol>
  <symbol fill="none" xmlns="http://www.w3.org/2000/svg" viewBox="0 0 138 31" id="Logo-1">
    <g opacity="0.6">
      <path d="M33.6002 7.2901H36.7557V22.5985H33.6002V7.2901Z" fill="#1D2130"></path>
      <path d="M38.5229 17.3544C38.5229 16.253 38.8476 15.1764 39.4558 14.2611C40.064 13.3458 40.9283 12.6329 41.9392 12.2129C42.9501 11.7929 44.0621 11.6846 45.1341 11.9018C46.2062 12.119 47.1901 12.6519 47.9611 13.4329C48.7322 14.214 49.2556 15.208 49.4651 16.2889C49.6746 17.3699 49.5608 18.4892 49.1379 19.5049C48.7151 20.5207 48.0024 21.3871 47.0901 21.9944C46.1779 22.6017 45.1071 22.9226 44.0136 22.9163C43.2883 22.922 42.5692 22.7818 41.8984 22.5039C41.2276 22.226 40.6186 21.816 40.1072 21.298C39.5958 20.7799 39.1922 20.1643 38.9202 19.4871C38.6481 18.8099 38.513 18.0848 38.5229 17.3544ZM46.4329 17.3544C46.4205 16.8796 46.2693 16.419 45.9984 16.0302C45.7274 15.6414 45.3487 15.3418 44.9095 15.1687C44.4703 14.9955 43.9902 14.9567 43.5293 15.0569C43.0683 15.1572 42.6469 15.3921 42.3178 15.7323C41.9886 16.0725 41.7664 16.5029 41.6789 16.9696C41.5913 17.4364 41.6424 17.9187 41.8256 18.3564C42.0088 18.7941 42.3161 19.1676 42.709 19.4303C43.1019 19.693 43.563 19.8332 44.0346 19.8334C44.3557 19.8397 44.6746 19.7792 44.9715 19.6558C45.2683 19.5323 45.5367 19.3485 45.7598 19.1158C45.9829 18.8832 46.1559 18.6067 46.2681 18.3036C46.3803 18.0005 46.4292 17.6774 46.4118 17.3544H46.4329Z" fill="#1D2130"></path>
      <path d="M61.9899 12.1104V22.0793C61.9899 25.5965 59.2551 27.0903 56.4887 27.0903C55.5129 27.171 54.5342 26.9757 53.6626 26.5265C52.7911 26.0773 52.0613 25.392 51.5555 24.5477L54.2167 23.001C54.4323 23.4389 54.7754 23.8002 55.2001 24.0368C55.6248 24.2734 56.111 24.374 56.5939 24.3253C56.9015 24.3634 57.2137 24.3327 57.5082 24.2352C57.8026 24.1377 58.0721 23.9758 58.2972 23.7612C58.5223 23.5466 58.6976 23.2846 58.8104 22.9938C58.9233 22.7031 58.971 22.3908 58.9501 22.0793V21.1153C58.5828 21.5637 58.1169 21.9197 57.5892 22.1551C57.0615 22.3905 56.4866 22.4988 55.9102 22.4713C54.5153 22.4713 53.1776 21.9132 52.1913 20.9199C51.205 19.9265 50.6509 18.5792 50.6509 17.1743C50.6509 15.7695 51.205 14.4221 52.1913 13.4288C53.1776 12.4354 54.5153 11.8773 55.9102 11.8773C56.4866 11.8498 57.0615 11.9581 57.5892 12.1935C58.1169 12.4289 58.5828 12.7849 58.9501 13.2333V12.1739L61.9899 12.1104ZM58.9501 17.1425C58.971 16.6357 58.841 16.1341 58.5767 15.7023C58.3123 15.2704 57.9258 14.9281 57.4668 14.7193C57.0077 14.5106 56.4972 14.4448 56.0007 14.5307C55.5043 14.6165 55.0447 14.8499 54.6811 15.2009C54.3174 15.5519 54.0663 16.0044 53.9601 16.5003C53.8539 16.9962 53.8973 17.5127 54.0849 17.9835C54.2725 18.4543 54.5956 18.8578 55.0127 19.1422C55.4299 19.4265 55.9219 19.5787 56.4256 19.5791C56.7542 19.603 57.0842 19.5571 57.3942 19.4446C57.7042 19.332 57.9872 19.1552 58.2251 18.9255C58.463 18.6959 58.6505 18.4186 58.7754 18.1115C58.9002 17.8043 58.9597 17.4743 58.9501 17.1425Z" fill="#1D2130"></path>
      <path d="M63.7675 17.3544C63.7675 16.2539 64.0917 15.1782 64.6989 14.2633C65.3062 13.3484 66.1693 12.6356 67.179 12.2149C68.1886 11.7943 69.2995 11.6847 70.371 11.9002C71.4425 12.1157 72.4265 12.6464 73.1984 13.4253C73.9703 14.2042 74.4954 15.1962 74.7073 16.2758C74.9191 17.3554 74.8083 18.4741 74.3887 19.4902C73.9691 20.5063 73.2597 21.3742 72.3502 21.9841C71.4407 22.5939 70.3719 22.9184 69.2793 22.9163C68.5526 22.9234 67.8319 22.7843 67.1593 22.5071C66.4867 22.23 65.8758 21.8204 65.3624 21.3024C64.8491 20.7844 64.4436 20.1683 64.1697 19.4904C63.8958 18.8124 63.7591 18.0863 63.7675 17.3544ZM71.6775 17.3544C71.6651 16.8791 71.5137 16.4181 71.2423 16.0291C70.9709 15.6402 70.5915 15.3405 70.1517 15.1677C69.7119 14.9949 69.2313 14.9567 68.7701 15.0578C68.3088 15.1589 67.8874 15.3949 67.5588 15.7361C67.2301 16.0774 67.0087 16.5087 66.9223 16.9762C66.836 17.4436 66.8885 17.9263 67.0734 18.3637C67.2582 18.8012 67.5671 19.174 67.9614 19.4355C68.3557 19.6969 68.8178 19.8353 69.2898 19.8334C69.6109 19.8397 69.9298 19.7792 70.2267 19.6558C70.5235 19.5323 70.7919 19.3485 71.015 19.1158C71.2381 18.8832 71.4111 18.6067 71.5233 18.3036C71.6355 18.0005 71.6844 17.6774 71.667 17.3544H71.6775Z" fill="#1D2130"></path>
      <path d="M76.2532 9.3029C76.2532 8.92994 76.363 8.56535 76.5687 8.25524C76.7745 7.94513 77.0669 7.70343 77.409 7.56071C77.7511 7.41798 78.1276 7.38064 78.4908 7.4534C78.854 7.52616 79.1876 7.70576 79.4494 7.96949C79.7113 8.23321 79.8896 8.56922 79.9618 8.93501C80.0341 9.30081 79.997 9.67997 79.8553 10.0245C79.7136 10.3691 79.4736 10.6636 79.1657 10.8708C78.8578 11.078 78.4958 11.1886 78.1255 11.1886C77.6306 11.1831 77.1576 10.9827 76.8076 10.6302C76.4577 10.2778 76.2587 9.80132 76.2532 9.3029ZM76.5582 12.1103H79.7138V22.5984H76.5582V12.1103Z" fill="#1D2130"></path>
      <path d="M93.2197 17.3544C93.2551 18.052 93.1531 18.7496 92.9197 19.4073C92.6863 20.065 92.3261 20.6697 91.8598 21.1866C91.3935 21.7035 90.8302 22.1225 90.2025 22.4193C89.5748 22.7162 88.8951 22.8851 88.2023 22.9163C87.6144 22.9557 87.0253 22.8609 86.4789 22.6389C85.9325 22.4169 85.4429 22.0736 85.0467 21.6344V26.8149H81.8911V12.1104H85.0467V13.0956C85.4435 12.6578 85.9334 12.316 86.4799 12.0958C87.0263 11.8757 87.6152 11.7829 88.2023 11.8244C88.8923 11.8557 89.5694 12.0235 90.1949 12.3184C90.8205 12.6132 91.3823 13.0293 91.8482 13.5428C92.3141 14.0563 92.675 14.6572 92.9103 15.3112C93.1456 15.9652 93.2508 16.6595 93.2197 17.3544ZM90.0641 17.3544C90.0517 16.8624 89.8953 16.385 89.6146 15.9821C89.334 15.5791 88.9414 15.2686 88.4863 15.0894C88.0311 14.9102 87.5336 14.8703 87.056 14.9747C86.5784 15.0791 86.1421 15.3231 85.8016 15.6763C85.4612 16.0294 85.2318 16.4758 85.1422 16.9597C85.0526 17.4435 85.1068 17.9433 85.298 18.3962C85.4892 18.8492 85.8089 19.2352 86.217 19.506C86.6251 19.7767 87.1035 19.9201 87.5922 19.9182C87.9269 19.9325 88.2609 19.8754 88.5722 19.7506C88.8835 19.6258 89.165 19.4361 89.3984 19.1941C89.6318 18.952 89.8118 18.6629 89.9265 18.3459C90.0412 18.0289 90.0881 17.691 90.0641 17.3544Z" fill="#1D2130"></path>
      <path d="M102.823 19.452C102.823 21.8674 100.719 22.8951 98.4895 22.8951C97.58 22.9775 96.6668 22.7833 95.868 22.3376C95.0692 21.8919 94.4215 21.2152 94.0086 20.3949L96.7224 18.8481C96.8299 19.2262 97.063 19.5555 97.3828 19.7812C97.7025 20.0068 98.0895 20.115 98.479 20.0876C99.2258 20.0876 99.6045 19.8546 99.6045 19.4308C99.6045 18.2761 94.4819 18.8905 94.4819 15.2568C94.4819 12.9685 96.3963 11.8243 98.5631 11.8243C99.3868 11.7872 100.205 11.9754 100.931 12.3689C101.657 12.7625 102.264 13.3468 102.686 14.0596L99.9726 15.5004C99.8527 15.2271 99.6568 14.9946 99.4086 14.8311C99.1603 14.6675 98.8703 14.5799 98.5736 14.5788C98.0267 14.5788 97.7006 14.7906 97.7006 15.1614C97.7006 16.3691 102.823 15.5746 102.823 19.452Z" fill="#1D2130"></path>
      <path d="M114.257 12.1104V22.5985H111.101V21.6132C110.743 22.0494 110.288 22.3945 109.772 22.6208C109.257 22.8472 108.696 22.9484 108.135 22.9163C106.031 22.9163 104.233 21.4014 104.233 18.5728V12.1104H107.388V18.096C107.363 18.3463 107.393 18.599 107.474 18.8366C107.556 19.0743 107.688 19.2913 107.861 19.4726C108.034 19.6539 108.244 19.7952 108.477 19.8868C108.709 19.9784 108.959 20.018 109.208 20.003C110.344 20.003 111.143 19.3249 111.143 17.8841V12.1104H114.257Z" fill="#1D2130"></path>
      <path d="M132.138 16.1573V22.5984H128.983V16.4327C128.983 15.3733 128.489 14.7165 127.489 14.7165C126.49 14.7165 125.859 15.4475 125.859 16.687V22.5984H122.703V16.4327C122.703 15.3733 122.209 14.7165 121.21 14.7165C120.21 14.7165 119.579 15.4475 119.579 16.687V22.5984H116.424V12.1103H119.579V13.0744C119.906 12.6485 120.333 12.3112 120.821 12.0929C121.31 11.8747 121.844 11.7824 122.377 11.8243C122.911 11.7963 123.443 11.9085 123.92 12.1499C124.398 12.3914 124.805 12.7538 125.102 13.2015C125.448 12.7337 125.907 12.3621 126.435 12.1212C126.963 11.8804 127.543 11.7782 128.12 11.8243C130.582 11.8243 132.138 13.5405 132.138 16.1573Z" fill="#1D2130"></path>
      <path d="M14.8034 4.53566V0.0332031H0.708435V30.9677H14.8034V26.4653C11.916 26.4653 9.14694 25.3101 7.10528 23.2538C5.06361 21.1975 3.91661 18.4085 3.91661 15.5005C3.91661 12.5924 5.06361 9.80348 7.10528 7.74718C9.14694 5.69088 11.916 4.53566 14.8034 4.53566Z" fill="#1D2130"></path>
      <path d="M14.8034 4.53566V26.4653C17.6907 26.4653 20.4598 25.3101 22.5014 23.2538C24.5431 21.1975 25.6901 18.4085 25.6901 15.5005C25.6901 12.5924 24.5431 9.80348 22.5014 7.74718C20.4598 5.69088 17.6907 4.53566 14.8034 4.53566Z" fill="#1D2130"></path>
      <path d="M134.789 12.0468C136.067 12.0468 137.103 11.0033 137.103 9.71611C137.103 8.42891 136.067 7.38542 134.789 7.38542C133.511 7.38542 132.475 8.42891 132.475 9.71611C132.475 11.0033 133.511 12.0468 134.789 12.0468Z" fill="#1D2130"></path>
    </g>
  </symbol>
  <symbol fill="none" xmlns="http://www.w3.org/2000/svg" viewBox="0 0 126 29" id="Logo-2">
    <g opacity="0.6">
      <path d="M37.0753 8.28916H40.2309V21.0185H37.0753V8.28916ZM41.4826 16.2122C41.4826 13.064 43.418 11.1855 46.4053 11.1855C49.3926 11.1855 51.328 13.064 51.328 16.2122C51.328 19.3604 49.4347 21.2493 46.4053 21.2493C43.3759 21.2493 41.4826 19.4129 41.4826 16.2122ZM48.1619 16.2122C48.1619 14.4807 47.4782 13.4627 46.4053 13.4627C45.3324 13.4627 44.6592 14.5121 44.6592 16.2122C44.6592 17.9122 45.3219 18.9406 46.4053 18.9406C47.4887 18.9406 48.1619 17.9752 48.1619 16.2227V16.2122ZM52.5166 21.6376H55.546C55.6901 21.9572 55.9339 22.2217 56.2409 22.3919C56.548 22.5621 56.9019 22.6288 57.25 22.5821C58.4491 22.5821 59.0802 21.9315 59.0802 20.987V19.224H59.0171C58.7657 19.7643 58.3577 20.2171 57.8459 20.5239C57.334 20.8306 56.7418 20.9773 56.1455 20.945C53.842 20.945 52.3168 19.1925 52.3168 16.1807C52.3168 13.1689 53.7683 11.2695 56.1876 11.2695C56.8025 11.2454 57.4101 11.4094 57.929 11.7395C58.4478 12.0696 58.8532 12.5501 59.0907 13.1164V11.3639H62.2463V20.9135C62.2463 23.2117 60.2162 24.6389 57.2184 24.6389C54.431 24.6389 52.6954 23.3901 52.5166 21.6481V21.6376ZM59.0907 16.2017C59.0907 14.6696 58.386 13.7041 57.271 13.7041C56.156 13.7041 55.4723 14.6591 55.4723 16.2017C55.4723 17.7443 56.1455 18.6153 57.271 18.6153C58.3965 18.6153 59.0907 17.7653 59.0907 16.2122V16.2017ZM63.4349 16.2017C63.4349 13.0535 65.3704 11.175 68.3577 11.175C71.3449 11.175 73.2909 13.0535 73.2909 16.2017C73.2909 19.3499 71.3975 21.2388 68.3577 21.2388C65.3178 21.2388 63.4349 19.4129 63.4349 16.2122V16.2017ZM70.1143 16.2017C70.1143 14.4702 69.4305 13.4522 68.3577 13.4522C67.2848 13.4522 66.6641 14.5121 66.6641 16.2227C66.6641 17.9332 67.3268 18.9511 68.3997 18.9511C69.4726 18.9511 70.1143 17.9752 70.1143 16.2227V16.2017ZM74.49 9.07622C74.4817 8.75836 74.5682 8.44521 74.7386 8.17646C74.9089 7.90772 75.1554 7.69548 75.4468 7.56665C75.7382 7.43783 76.0613 7.39822 76.3753 7.45284C76.6893 7.50747 76.9799 7.65387 77.2104 7.87349C77.4409 8.0931 77.6008 8.37605 77.6699 8.68645C77.739 8.99686 77.7141 9.32074 77.5985 9.61704C77.4829 9.91335 77.2817 10.1687 77.0204 10.3508C76.7591 10.5329 76.4496 10.6335 76.1309 10.6398C75.9197 10.6543 75.7077 10.6251 75.5084 10.5539C75.309 10.4828 75.1266 10.3712 74.9725 10.2264C74.8184 10.0815 74.696 9.90642 74.6129 9.7121C74.5299 9.51778 74.4881 9.30843 74.49 9.09721V9.07622ZM74.49 11.3849H77.6456V21.0185H74.49V11.3849ZM89.1004 16.2017C89.1004 19.3499 87.7014 21.1444 85.3031 21.1444C84.6882 21.1838 84.0759 21.0338 83.5492 20.7147C83.0224 20.3957 82.6066 19.9229 82.3579 19.3604H82.2948V24.1037H79.1392V11.3639H82.2948V13.085H82.3579C82.595 12.5131 83.0029 12.0281 83.5261 11.6957C84.0493 11.3634 84.6625 11.1999 85.2821 11.2275C87.7014 11.2695 89.1424 13.0745 89.1424 16.2227L89.1004 16.2017ZM85.9448 16.2017C85.9448 14.6696 85.24 13.6936 84.1356 13.6936C83.0311 13.6936 82.3264 14.6801 82.3158 16.2017C82.3053 17.7233 83.0311 18.6993 84.1356 18.6993C85.24 18.6993 85.9448 17.7443 85.9448 16.2227V16.2017ZM94.5175 11.1645C97.1366 11.1645 98.7249 12.4028 98.7985 14.3862H95.9269C95.9269 13.7041 95.3589 13.2738 94.4859 13.2738C93.6128 13.2738 93.2237 13.6097 93.2237 14.1029C93.2237 14.5961 93.5708 14.7535 94.2755 14.9004L96.2951 15.3097C98.22 15.719 99.0405 16.4955 99.0405 17.9542C99.0405 19.9481 97.2207 21.2284 94.5385 21.2284C91.8562 21.2284 90.0996 19.9481 89.9629 17.9857H93.0028C93.0974 18.6993 93.6654 19.119 94.5911 19.119C95.5167 19.119 95.9375 18.8147 95.9375 18.311C95.9375 17.8073 95.6429 17.7023 94.8856 17.5449L93.0659 17.1567C91.183 16.7684 90.1943 15.7714 90.1943 14.3023C90.2153 12.4133 91.9088 11.1855 94.5175 11.1855V11.1645ZM109.57 20.9975H106.53V19.203H106.467C106.3 19.8055 105.931 20.3328 105.422 20.6974C104.913 21.062 104.294 21.242 103.669 21.2074C103.189 21.2346 102.71 21.1588 102.262 20.9851C101.814 20.8115 101.409 20.544 101.074 20.2008C100.739 19.8576 100.482 19.4466 100.32 18.9957C100.158 18.5447 100.094 18.0643 100.134 17.5869V11.3639H103.29V16.8628C103.29 18.0067 103.879 18.6153 104.857 18.6153C105.087 18.6158 105.313 18.5673 105.523 18.4732C105.732 18.3791 105.918 18.2414 106.07 18.0695C106.221 17.8976 106.334 17.6954 106.4 17.4764C106.467 17.2574 106.486 17.0267 106.456 16.7999V11.3639H109.612L109.57 20.9975ZM111.095 11.3639H114.145V13.2214H114.208C114.376 12.6269 114.736 12.1045 115.233 11.7361C115.73 11.3678 116.335 11.1741 116.954 11.1855C117.583 11.1352 118.209 11.3232 118.706 11.7121C119.203 12.101 119.535 12.6623 119.636 13.2843H119.699C119.89 12.6557 120.285 12.1082 120.822 11.7283C121.359 11.3483 122.007 11.1573 122.665 11.1855C123.094 11.1711 123.522 11.247 123.92 11.4082C124.317 11.5693 124.677 11.8122 124.974 12.121C125.272 12.4298 125.501 12.7976 125.647 13.2005C125.793 13.6034 125.852 14.0324 125.821 14.4597V21.0185H122.665V15.2992C122.665 14.2498 122.192 13.7671 121.308 13.7671C121.111 13.7654 120.916 13.8059 120.736 13.8859C120.556 13.9658 120.396 14.0834 120.265 14.2306C120.134 14.3778 120.037 14.5512 119.979 14.7392C119.921 14.9271 119.905 15.1253 119.93 15.3202V21.0185H116.933V15.2572C116.933 14.2918 116.459 13.7671 115.597 13.7671C115.398 13.7671 115.201 13.8093 115.019 13.8909C114.837 13.9725 114.675 14.0916 114.543 14.2403C114.41 14.3891 114.311 14.5641 114.252 14.7539C114.192 14.9436 114.174 15.1438 114.198 15.3412V21.0185H111.042L111.095 11.3639Z" fill="#1D2130"></path>
      <path d="M28.2502 8.86639C27.7149 7.64526 27.0064 6.50726 26.1465 5.4873C24.8752 3.93453 23.2888 2.66796 21.4916 1.77094C19.6944 0.873916 17.7272 0.36679 15.7193 0.282934C13.7115 0.199078 11.7087 0.540391 9.84262 1.28442C7.97655 2.02844 6.28958 3.1583 4.89273 4.59964C3.49588 6.04097 2.42082 7.76111 1.73832 9.64682C1.05582 11.5325 0.781343 13.5411 0.93296 15.5402C1.08458 17.5394 1.65885 19.4839 2.61798 21.2457C3.57711 23.0074 4.89934 24.5466 6.49767 25.7619C7.52324 26.5572 8.65646 27.2037 9.86363 27.6823C11.5561 28.3742 13.3675 28.7307 15.1966 28.7317C18.9721 28.7233 22.5903 27.2219 25.2581 24.5564C27.9259 21.891 29.4255 18.279 29.4283 14.5122C29.431 12.5692 29.0299 10.6468 28.2502 8.86639ZM15.1861 3.16811C16.8286 3.16793 18.4513 3.5261 19.9405 4.21752C19.5773 4.37405 19.1955 4.48339 18.8045 4.54283C17.5176 4.72868 16.3255 5.32472 15.4061 6.242C14.4866 7.15928 13.8892 8.34861 13.7029 9.63246C13.6212 10.3525 13.2929 11.0223 12.7736 11.5289C12.2543 12.0356 11.5757 12.3479 10.8524 12.4134C9.56553 12.5992 8.37342 13.1953 7.45399 14.1126C6.53457 15.0298 5.93713 16.2192 5.75085 17.503C5.68778 18.1876 5.395 18.831 4.91988 19.329C4.10011 17.6009 3.73185 15.694 3.84937 13.7857C3.96688 11.8775 4.56635 10.0299 5.59198 8.41488C6.61762 6.7999 8.03609 5.47 9.71539 4.54897C11.3947 3.62794 13.2802 3.14569 15.1966 3.14712L15.1861 3.16811ZM6.48715 21.8581C6.61338 21.7426 6.7396 21.6377 6.86582 21.5118C7.80162 20.6066 8.40229 19.4117 8.56984 18.1222C8.63777 17.3973 8.96218 16.7202 9.48496 16.2122C9.98801 15.6898 10.6651 15.3688 11.3888 15.3098C12.6757 15.1239 13.8678 14.5279 14.7872 13.6106C15.7066 12.6933 16.3041 11.504 16.4904 10.2201C16.5359 9.46194 16.862 8.74764 17.4055 8.21576C17.9209 7.70349 18.6045 7.39418 19.3304 7.34475C20.5126 7.18247 21.6152 6.65814 22.486 5.8441C23.4775 6.66481 24.3176 7.65212 24.9684 8.76145C24.9284 8.81534 24.8825 8.86462 24.8316 8.90837C24.3295 9.43538 23.6533 9.76339 22.9278 9.83185C21.6396 10.0144 20.4457 10.6094 19.5257 11.5273C18.6056 12.4452 18.0093 13.6363 17.8262 14.9215C17.7521 15.6439 17.4299 16.3186 16.9142 16.8311C16.3986 17.3437 15.7211 17.6626 14.9967 17.7339C13.7061 17.9183 12.5096 18.5132 11.5848 19.4301C10.6601 20.347 10.0564 21.5371 9.86363 22.8235C9.80702 23.3364 9.63048 23.8288 9.34822 24.2612C8.269 23.6219 7.30244 22.8101 6.48715 21.8581ZM15.1861 25.9088C14.1187 25.9099 13.0565 25.7616 12.0305 25.468C12.3814 24.8153 12.6096 24.1039 12.7037 23.3692C12.7774 22.6484 13.0981 21.975 13.6116 21.4626C14.1252 20.9503 14.8001 20.6303 15.5226 20.5568C16.8114 20.373 18.0059 19.7779 18.9274 18.8605C19.8489 17.943 20.4479 16.7525 20.6347 15.4672C20.7084 14.7463 21.0291 14.0729 21.5427 13.5606C22.0562 13.0482 22.7312 12.7283 23.4537 12.6548C24.4235 12.5289 25.3479 12.1687 26.1465 11.6053C26.5899 13.2822 26.6424 15.0381 26.3 16.7384C25.9576 18.4386 25.2294 20.038 24.1712 21.4139C23.113 22.7898 21.753 23.9055 20.1955 24.6756C18.638 25.4457 16.9243 25.8496 15.1861 25.8563V25.9088Z" fill="#1D2130"></path>
    </g>
  </symbol>
  <symbol fill="none" xmlns="http://www.w3.org/2000/svg" viewBox="0 0 124 25" id="Logo-3">
    <g opacity="0.6">
      <path d="M40.1973 20.1891C39.575 20.2226 38.9595 20.0469 38.4501 19.6902C38.2372 19.5334 38.0659 19.3275 37.9511 19.0903C37.8363 18.8531 37.7813 18.5916 37.7909 18.3286V8.69321C37.7858 8.65241 37.7902 8.611 37.8036 8.57213C37.8171 8.53326 37.8393 8.49794 37.8685 8.46888C37.8978 8.43981 37.9333 8.41776 37.9725 8.4044C38.0116 8.39104 38.0533 8.38672 38.0943 8.39178H39.852C40.0508 8.39178 40.145 8.49572 40.145 8.69321V17.5802C40.145 17.9752 40.3228 18.1727 40.689 18.1727C40.8442 18.179 40.9995 18.1615 41.1493 18.1207C41.3586 18.1207 41.4737 18.183 41.4841 18.3701L41.6411 19.6694C41.6486 19.7073 41.6479 19.7463 41.639 19.7839C41.63 19.8215 41.6131 19.8567 41.5893 19.8873C41.5655 19.9178 41.5354 19.9429 41.501 19.9609C41.4666 19.9789 41.4288 19.9894 41.39 19.9916C41.005 20.118 40.6027 20.1846 40.1973 20.1891Z" fill="#1D2130"></path>
      <path d="M50.0842 19.077C49.201 19.802 48.0912 20.1985 46.9455 20.1985C45.7998 20.1985 44.69 19.802 43.8068 19.077C43.0305 18.2985 42.595 17.2469 42.595 16.1511C42.595 15.0552 43.0305 14.0037 43.8068 13.2251C44.6917 12.5039 45.8009 12.1097 46.9455 12.1097C48.0901 12.1097 49.1993 12.5039 50.0842 13.2251C50.8426 14.0108 51.266 15.0573 51.266 16.1459C51.266 17.2344 50.8426 18.2809 50.0842 19.0666V19.077ZM45.4598 17.705C45.8697 18.0738 46.4029 18.2781 46.956 18.2781C47.509 18.2781 48.0422 18.0738 48.4521 17.705C48.823 17.2812 49.0273 16.7386 49.0273 16.177C49.0273 15.6155 48.823 15.0728 48.4521 14.6491C48.0422 14.2803 47.509 14.076 46.956 14.076C46.4029 14.076 45.8697 14.2803 45.4598 14.6491C45.0889 15.0728 44.8846 15.6155 44.8846 16.177C44.8846 16.7386 45.0889 17.2812 45.4598 17.705Z" fill="#1D2130"></path>
      <path d="M60.9441 12.3727C61.1429 12.3727 61.2371 12.4767 61.2371 12.6742V20.1268C61.2554 20.6298 61.1606 21.1305 60.9597 21.5926C60.7589 22.0546 60.4569 22.4664 60.0758 22.798C59.2298 23.5147 58.1419 23.8861 57.0312 23.8375C56.028 23.8725 55.0382 23.6003 54.1959 23.0579C53.8362 22.8232 53.5289 22.5176 53.2932 22.16C53.0574 21.8024 52.8981 21.4004 52.8253 20.9791C52.8253 20.7712 52.8253 20.6776 53.1078 20.6776H54.8655C54.9401 20.6802 55.0124 20.7041 55.0737 20.7465C55.1349 20.7889 55.1825 20.848 55.2108 20.9167C55.3247 21.2324 55.552 21.4952 55.849 21.6547C56.2108 21.8402 56.6136 21.9331 57.0207 21.9249C57.2664 21.9383 57.5123 21.9029 57.744 21.8208C57.9757 21.7387 58.1887 21.6116 58.3704 21.4468C58.5364 21.2744 58.6655 21.0705 58.7501 20.8472C58.8346 20.6239 58.8727 20.3859 58.8621 20.1475V19.4927C58.2328 19.9526 57.4669 20.1904 56.6859 20.1683C56.1394 20.1881 55.5945 20.0979 55.0839 19.9032C54.5733 19.7085 54.1075 19.4133 53.7146 19.0354C52.9603 18.2601 52.5387 17.224 52.5387 16.1458C52.5387 15.0676 52.9603 14.0315 53.7146 13.2562C54.1094 12.8816 54.5757 12.5893 55.086 12.3965C55.5963 12.2037 56.1403 12.1143 56.6859 12.1337C57.4895 12.1126 58.276 12.3657 58.9144 12.8509V12.6846C58.9096 12.6447 58.9138 12.6043 58.9267 12.5663C58.9396 12.5283 58.9608 12.4936 58.9888 12.4647C59.0169 12.4358 59.051 12.4135 59.0888 12.3994C59.1266 12.3853 59.1671 12.3798 59.2074 12.3831L60.9441 12.3727ZM56.8847 18.3182C57.1543 18.3265 57.4224 18.2758 57.67 18.1699C57.9177 18.0639 58.1389 17.9052 58.3181 17.7049C58.6659 17.2587 58.8547 16.7102 58.8547 16.1458C58.8547 15.5814 58.6659 15.033 58.3181 14.5867C58.1396 14.3891 57.9197 14.2328 57.6739 14.1286C57.4281 14.0245 57.1623 13.9751 56.8952 13.9838C56.6226 13.9753 56.3513 14.0257 56.1002 14.1316C55.8491 14.2375 55.6242 14.3963 55.4409 14.5971C55.0556 15.024 54.8529 15.5833 54.876 16.1562C54.8571 16.7235 55.0552 17.2769 55.4305 17.7049C55.6141 17.9051 55.8392 18.0636 56.0902 18.1694C56.3411 18.2753 56.6122 18.326 56.8847 18.3182Z" fill="#1D2130"></path>
      <path d="M70.2661 19.0769C69.3811 19.7982 68.2719 20.1923 67.1274 20.1923C65.9828 20.1923 64.8736 19.7982 63.9886 19.0769C63.2296 18.2895 62.8059 17.2413 62.8059 16.151C62.8059 15.0607 63.2296 14.0125 63.9886 13.225C64.8744 12.5057 65.9833 12.1127 67.1274 12.1127C68.2714 12.1127 69.3803 12.5057 70.2661 13.225C71.0244 14.0108 71.4478 15.0572 71.4478 16.1458C71.4478 17.2344 71.0244 18.2808 70.2661 19.0666V19.0769ZM65.6312 17.7049C65.8318 17.8945 66.0682 18.0426 66.3269 18.1408C66.5855 18.2389 66.8611 18.2851 67.1378 18.2766C67.4128 18.2837 67.6864 18.2368 67.9432 18.1387C68.1999 18.0406 68.4346 17.8932 68.6339 17.7049C68.9988 17.2784 69.1992 16.7368 69.1992 16.177C69.1992 15.6172 68.9988 15.0756 68.6339 14.649C68.4346 14.4607 68.1999 14.3133 67.9432 14.2152C67.6864 14.1171 67.4128 14.0703 67.1378 14.0774C66.8611 14.0689 66.5855 14.1151 66.3269 14.2132C66.0682 14.3113 65.8318 14.4595 65.6312 14.649C65.2663 15.0756 65.066 15.6172 65.066 16.177C65.066 16.7368 65.2663 17.2784 65.6312 17.7049Z" fill="#1D2130"></path>
      <path d="M75.2253 10.6058C74.9487 10.8463 74.5937 10.9788 74.2261 10.9788C73.8586 10.9788 73.5035 10.8463 73.227 10.6058C73.1016 10.4882 73.0017 10.3464 72.9334 10.1891C72.8651 10.0319 72.8299 9.86238 72.8299 9.69109C72.8299 9.5198 72.8651 9.35031 72.9334 9.19302C73.0017 9.03574 73.1016 8.89397 73.227 8.7764C73.5064 8.54192 73.8604 8.41329 74.2261 8.41329C74.5919 8.41329 74.9459 8.54192 75.2253 8.7764C75.3507 8.89397 75.4506 9.03574 75.5188 9.19302C75.5871 9.35031 75.6223 9.5198 75.6223 9.69109C75.6223 9.86238 75.5871 10.0319 75.5188 10.1891C75.4506 10.3464 75.3507 10.4882 75.2253 10.6058ZM75.445 20.1892C74.8231 20.2195 74.2086 20.044 73.6978 19.6902C73.4881 19.5312 73.3199 19.3246 73.207 19.0877C73.0942 18.8508 73.04 18.5905 73.0491 18.3286V12.6742C73.044 12.6334 73.0484 12.592 73.0618 12.5531C73.0753 12.5143 73.0975 12.4789 73.1267 12.4499C73.156 12.4208 73.1915 12.3988 73.2306 12.3854C73.2698 12.372 73.3115 12.3677 73.3525 12.3728H75.1102C75.309 12.3728 75.4031 12.4767 75.4031 12.6742V17.5802C75.4031 17.9752 75.581 18.1727 75.9367 18.1727C76.0954 18.1784 76.254 18.1609 76.4075 18.1207C76.6168 18.1207 76.7319 18.1831 76.7423 18.3702L76.8993 19.6695C76.9068 19.7073 76.9061 19.7464 76.8971 19.784C76.8882 19.8215 76.8713 19.8568 76.8475 19.8873C76.8237 19.9178 76.7936 19.943 76.7592 19.961C76.7248 19.979 76.687 19.9894 76.6482 19.9917C76.2598 20.1187 75.8539 20.1854 75.445 20.1892Z" fill="#1D2130"></path>
      <path d="M83.3651 12.1233C83.9141 12.1018 84.4619 12.19 84.9759 12.3829C85.4899 12.5757 85.9597 12.8692 86.3573 13.2459C87.0972 14.0347 87.5085 15.0729 87.5085 16.1511C87.5085 17.2293 87.0972 18.2674 86.3573 19.0562C85.9616 19.4363 85.4924 19.7326 84.9781 19.9274C84.4638 20.1221 83.915 20.2112 83.3651 20.1892C82.5816 20.2065 81.8139 19.9693 81.1785 19.5136V23.2658C81.1785 23.4633 81.0738 23.5569 80.8751 23.5569H79.1174C79.0773 23.5643 79.0359 23.5619 78.997 23.55C78.958 23.538 78.9225 23.5167 78.8937 23.4881C78.8649 23.4594 78.8435 23.4242 78.8314 23.3855C78.8193 23.3467 78.8169 23.3057 78.8244 23.2658V14.7427C78.8367 14.6593 78.8293 14.5742 78.8026 14.4942C78.7759 14.4142 78.7308 14.3416 78.6708 14.282C78.6109 14.2224 78.5377 14.1776 78.4572 14.1511C78.3767 14.1246 78.2911 14.1172 78.2071 14.1294H77.8619C77.6317 14.1294 77.5166 14.0462 77.5166 13.8799V12.6534C77.5112 12.5775 77.5321 12.5021 77.5759 12.4397C77.6197 12.3773 77.6837 12.3316 77.7573 12.3104C78.1192 12.1797 78.5022 12.1163 78.8872 12.1233C79.2711 12.0896 79.6565 12.1705 79.9939 12.3556C80.3312 12.5408 80.6053 12.8219 80.7809 13.1627C81.1179 12.8241 81.5209 12.5572 81.9652 12.3785C82.4095 12.1998 82.8858 12.113 83.3651 12.1233ZM81.733 17.705C81.9195 17.8987 82.1436 18.0528 82.3918 18.1581C82.6399 18.2634 82.9069 18.3177 83.1768 18.3177C83.4466 18.3177 83.7136 18.2634 83.9618 18.1581C84.2099 18.0528 84.434 17.8987 84.6206 17.705C85.0135 17.2696 85.22 16.699 85.196 16.1147C85.2234 15.5298 85.0165 14.958 84.6206 14.5244C84.434 14.3307 84.2099 14.1765 83.9618 14.0712C83.7136 13.9659 83.4466 13.9116 83.1768 13.9116C82.9069 13.9116 82.6399 13.9659 82.3918 14.0712C82.1436 14.1765 81.9195 14.3307 81.733 14.5244C81.3523 14.9657 81.1541 15.534 81.1785 16.1147C81.1572 16.6949 81.355 17.2621 81.733 17.705Z" fill="#1D2130"></path>
      <path d="M92.4463 20.1891C91.5071 20.2275 90.5758 20.0043 89.7575 19.5447C89.4292 19.3482 89.1496 19.0808 88.9395 18.7623C88.7294 18.4438 88.5941 18.0824 88.5439 17.7049C88.5439 17.497 88.6171 17.3931 88.8473 17.3931H90.3852C90.4584 17.3959 90.5294 17.4188 90.5903 17.4591C90.6512 17.4995 90.6997 17.5557 90.7305 17.6218C90.9502 18.183 91.5256 18.4637 92.4463 18.4637C92.7675 18.4783 93.0873 18.414 93.3775 18.2766C93.4776 18.2316 93.5636 18.1605 93.6263 18.0708C93.6889 17.9811 93.7259 17.8762 93.7332 17.7673C93.7332 17.497 93.5658 17.3099 93.231 17.1852C92.8339 17.0539 92.4234 16.9667 92.0069 16.9254C91.5136 16.8699 91.0243 16.7831 90.5422 16.6655C90.0733 16.5601 89.6469 16.3175 89.3181 15.9691C89.1244 15.7323 88.9819 15.4584 88.8993 15.1646C88.8167 14.8707 88.7959 14.5631 88.8381 14.2609C88.8803 13.9586 88.9846 13.6683 89.1446 13.4078C89.3045 13.1474 89.5167 12.9224 89.768 12.7469C90.5221 12.2697 91.4069 12.0372 92.2999 12.0817C93.1644 12.0526 94.0199 12.2651 94.769 12.6949C95.0709 12.8648 95.3308 13.0994 95.5299 13.3817C95.729 13.664 95.8622 13.9869 95.9198 14.3268C95.9198 14.5347 95.8257 14.6386 95.6374 14.6386H94.0889C94.0237 14.6425 93.9589 14.6267 93.9029 14.5933C93.8469 14.5599 93.8023 14.5105 93.775 14.4515C93.6716 14.2054 93.4768 14.0081 93.231 13.9007C92.9537 13.7565 92.6441 13.685 92.3312 13.6928C92.0245 13.6762 91.7186 13.737 91.4419 13.8695C91.3445 13.9068 91.2605 13.9724 91.2008 14.0576C91.1411 14.1428 91.1085 14.2438 91.1071 14.3476C91.1138 14.4897 91.1662 14.626 91.2566 14.7364C91.347 14.8468 91.4706 14.9254 91.6093 14.9609C92.0111 15.1113 92.4288 15.2159 92.8544 15.2727C93.3437 15.3366 93.8291 15.4269 94.3086 15.5429C94.7775 15.6484 95.2039 15.8909 95.5327 16.2393C95.7086 16.4313 95.8445 16.6559 95.9325 16.9004C96.0205 17.1448 96.0589 17.4041 96.0454 17.6633C96.0544 18.0226 95.9695 18.3781 95.799 18.6951C95.6284 19.0121 95.3781 19.2797 95.0724 19.4719C94.2907 19.9705 93.3747 20.2206 92.4463 20.1891Z" fill="#1D2130"></path>
      <path d="M107.104 19.6694C107.11 19.7063 107.109 19.744 107.1 19.7803C107.091 19.8166 107.074 19.8508 107.052 19.8808C107.03 19.9108 107.001 19.9361 106.969 19.9551C106.937 19.9741 106.901 19.9866 106.864 19.9916C106.482 20.1155 106.083 20.1821 105.681 20.1891C105.284 20.23 104.882 20.1683 104.516 20.0099C104.149 19.8514 103.83 19.6017 103.589 19.2848C102.85 19.9161 101.894 20.24 100.921 20.1891C100.469 20.2098 100.018 20.1363 99.5961 19.9734C99.1745 19.8105 98.7918 19.5618 98.4727 19.2433C98.1558 18.9095 97.91 18.5155 97.75 18.0851C97.59 17.6547 97.5191 17.1966 97.5416 16.7383V12.6742C97.5416 12.4767 97.6357 12.3727 97.8345 12.3727H99.5922C99.791 12.3727 99.8851 12.4767 99.8851 12.6742V16.4264C99.866 16.8939 100.027 17.3511 100.335 17.7049C100.489 17.867 100.676 17.9945 100.883 18.0788C101.091 18.163 101.314 18.2021 101.538 18.1934C101.768 18.2034 101.997 18.1681 102.212 18.0896C102.428 18.0111 102.625 17.891 102.794 17.7361C102.953 17.5729 103.077 17.3789 103.158 17.1661C103.239 16.9534 103.275 16.7264 103.264 16.4992V12.6742C103.264 12.4767 103.359 12.3727 103.557 12.3727H105.336C105.535 12.3727 105.629 12.4767 105.629 12.6742V17.5698C105.629 17.9752 105.807 18.1727 106.152 18.1727C106.314 18.1789 106.476 18.1614 106.633 18.1207C106.673 18.1097 106.714 18.1077 106.755 18.1149C106.795 18.1221 106.834 18.1383 106.867 18.1623C106.9 18.1863 106.927 18.2175 106.947 18.2535C106.966 18.2895 106.977 18.3294 106.979 18.3701L107.104 19.6694Z" fill="#1D2130"></path>
      <path d="M123.729 19.6695C123.738 19.7067 123.739 19.7455 123.731 19.7831C123.724 19.8207 123.708 19.8562 123.685 19.887C123.662 19.9178 123.632 19.9431 123.598 19.9612C123.564 19.9793 123.527 19.9897 123.488 19.9917C123.099 20.1173 122.694 20.1839 122.285 20.1892C121.663 20.2211 121.048 20.0454 120.538 19.6902C120.317 19.5381 120.138 19.3342 120.016 19.0967C119.893 18.8592 119.832 18.5953 119.837 18.3286V15.886C119.859 15.4199 119.702 14.9629 119.397 14.6075C119.251 14.4451 119.069 14.317 118.867 14.2325C118.664 14.148 118.445 14.1093 118.226 14.119C118.028 14.1116 117.831 14.1489 117.65 14.2281C117.468 14.3073 117.308 14.4264 117.179 14.5763C116.903 14.9246 116.762 15.3599 116.782 15.8028V19.6383C116.782 19.8358 116.688 19.9397 116.489 19.9397H114.721C114.68 19.9448 114.638 19.9404 114.599 19.9271C114.56 19.9137 114.524 19.8917 114.495 19.8626C114.466 19.8335 114.443 19.7982 114.43 19.7593C114.417 19.7205 114.412 19.6791 114.417 19.6383V15.886C114.44 15.425 114.295 14.9712 114.009 14.6075C113.882 14.4547 113.722 14.3318 113.541 14.2473C113.36 14.1629 113.163 14.1191 112.963 14.119C112.75 14.1104 112.537 14.1467 112.338 14.2256C112.14 14.3044 111.961 14.4239 111.812 14.5763C111.513 14.9135 111.359 15.3539 111.383 15.8028V19.6383C111.388 19.6791 111.384 19.7205 111.371 19.7593C111.357 19.7982 111.335 19.8335 111.306 19.8626C111.276 19.8917 111.241 19.9137 111.202 19.9271C111.163 19.9404 111.121 19.9448 111.08 19.9397H109.374C109.176 19.9397 109.081 19.8358 109.081 19.6383V14.7426C109.094 14.6593 109.086 14.5742 109.06 14.4942C109.033 14.4142 108.988 14.3415 108.928 14.282C108.868 14.2224 108.795 14.1776 108.714 14.1511C108.634 14.1246 108.548 14.1171 108.464 14.1294H108.119C107.889 14.1294 107.774 14.0462 107.774 13.8799V12.6534C107.768 12.5775 107.789 12.5021 107.833 12.4397C107.877 12.3772 107.941 12.3316 108.014 12.3104C108.376 12.1797 108.759 12.1163 109.144 12.1233C109.514 12.092 109.885 12.1652 110.214 12.3344C110.544 12.5036 110.818 12.7619 111.007 13.0796C111.36 12.7472 111.778 12.4908 112.235 12.3262C112.692 12.1617 113.179 12.0926 113.664 12.1233C114.135 12.1005 114.606 12.1883 115.036 12.3797C115.467 12.5712 115.847 12.8608 116.144 13.2251C116.49 12.8512 116.915 12.5584 117.389 12.3679C117.863 12.1774 118.374 12.0938 118.885 12.1233C119.341 12.1021 119.798 12.1752 120.224 12.338C120.651 12.5008 121.039 12.7498 121.364 13.0692C121.682 13.4023 121.929 13.7961 122.089 14.2267C122.249 14.6573 122.319 15.1157 122.295 15.5742V17.5802C122.295 17.9752 122.473 18.1727 122.808 18.1727C122.97 18.1802 123.133 18.1627 123.289 18.1207C123.506 18.1207 123.621 18.2039 123.635 18.3702L123.729 19.6695Z" fill="#1D2130"></path>
      <path d="M1.04712 11.0216C1.819 7.93935 3.60666 5.20231 6.12545 3.24624C8.64425 1.29017 11.7494 0.227539 14.9464 0.227539C18.1434 0.227539 21.2485 1.29017 23.7673 3.24624C26.2861 5.20231 28.0738 7.93935 28.8456 11.0216H27.5902C25.4722 10.9906 23.3977 11.6194 21.658 12.8197C21.5576 12.892 21.4528 12.9579 21.3441 13.0172H21.1976C21.089 12.9579 20.9842 12.892 20.8838 12.8197C19.1286 11.6472 17.0615 11.0209 14.9464 11.0209C12.8313 11.0209 10.7642 11.6472 9.00898 12.8197C8.90858 12.892 8.80375 12.9579 8.69511 13.0172H8.54864C8.44 12.9579 8.33518 12.892 8.23477 12.8197C6.49502 11.6194 4.42052 10.9906 2.30261 11.0216H1.04712ZM25.3303 17.5387C25.9748 17.04 26.7736 16.7792 27.5902 16.8007H29.2746V13.4642H27.5902C26.1518 13.4469 24.7463 13.8917 23.5831 14.7323C22.9284 15.2117 22.1365 15.4704 21.3232 15.4704C20.5099 15.4704 19.7179 15.2117 19.0633 14.7323C17.8705 13.9073 16.452 13.4651 14.9987 13.4651C13.5453 13.4651 12.1269 13.9073 10.9341 14.7323C10.2794 15.2117 9.48749 15.4704 8.67419 15.4704C7.86089 15.4704 7.06895 15.2117 6.41432 14.7323C5.23667 13.8809 3.81106 13.4356 2.35492 13.4642H0.618164V16.8007H2.30261C3.1192 16.7792 3.91798 17.04 4.56248 17.5387C5.7531 18.3641 7.17001 18.8067 8.62188 18.8067C10.0737 18.8067 11.4907 18.3641 12.6813 17.5387C13.3266 17.0416 14.1248 16.7809 14.9411 16.8007C15.758 16.7774 16.5574 17.0385 17.201 17.5387C18.3938 18.3636 19.8123 18.8058 21.2656 18.8058C22.719 18.8058 24.1375 18.3636 25.3303 17.5387ZM25.3303 23.5049C25.9748 23.0063 26.7736 22.7454 27.5902 22.7669H29.2746V19.4304H27.5902C26.1518 19.4131 24.7463 19.8579 23.5831 20.6985C22.9284 21.178 22.1365 21.4366 21.3232 21.4366C20.5099 21.4366 19.7179 21.178 19.0633 20.6985C17.8705 19.8736 16.452 19.4314 14.9987 19.4314C13.5453 19.4314 12.1269 19.8736 10.9341 20.6985C10.2794 21.178 9.48749 21.4366 8.67419 21.4366C7.86089 21.4366 7.06895 21.178 6.41432 20.6985C5.23667 19.8471 3.81106 19.4018 2.35492 19.4304H0.618164V22.7669H2.30261C3.1192 22.7454 3.91798 23.0063 4.56248 23.5049C5.7531 24.3304 7.17001 24.773 8.62188 24.773C10.0737 24.773 11.4907 24.3304 12.6813 23.5049C13.3266 23.0078 14.1248 22.7471 14.9411 22.7669C15.758 22.7437 16.5574 23.0047 17.201 23.5049C18.3938 24.3298 19.8123 24.772 21.2656 24.772C22.719 24.772 24.1375 24.3298 25.3303 23.5049Z" fill="#1D2130"></path>
    </g>
  </symbol>
  <symbol fill="none" xmlns="http://www.w3.org/2000/svg" viewBox="0 0 134 31" id="Logo-4">
    <g opacity="0.6">
      <path d="M38.3821 9.47656H41.7586V23.1189H38.3821V9.47656ZM43.105 17.9873C43.105 14.6082 45.2087 12.5828 48.3643 12.5828C51.5199 12.5828 53.6236 14.6082 53.6236 17.9873C53.6236 21.3663 51.5935 23.4127 48.3643 23.4127C45.1351 23.4127 43.105 21.4398 43.105 17.9873ZM50.2787 17.9873C50.2787 16.1298 49.5529 15.0384 48.3959 15.0384C47.2388 15.0384 46.5235 16.0878 46.5235 17.9873C46.5235 19.8867 47.2388 20.9256 48.3959 20.9256C49.5529 20.9256 50.2997 19.8867 50.2997 17.9977L50.2787 17.9873ZM54.97 23.822H58.2308C58.3792 24.1722 58.6385 24.4644 58.9689 24.6538C59.2994 24.8433 59.6829 24.9197 60.061 24.8714C61.3548 24.8714 62.028 24.1788 62.028 23.1503V21.2614H62.0385C61.7599 21.8496 61.3093 22.3398 60.746 22.6676C60.1828 22.9954 59.5333 23.1454 58.8829 23.0979C56.411 23.0979 54.7701 21.2194 54.7701 17.9873C54.7701 14.7551 56.3374 12.7402 58.9776 12.7402C59.6446 12.7046 60.3062 12.8762 60.8714 13.2315C61.4365 13.5867 61.8774 14.108 62.1332 14.7236H62.0385V12.8242H65.3834V23.0454C65.3834 25.5115 63.1956 27.0541 59.9769 27.0541C57.0527 27.0436 55.1804 25.7109 54.991 23.8325L54.97 23.822ZM62.0385 17.9873C62.0385 16.3397 61.2812 15.3008 60.082 15.3008C58.8829 15.3008 58.1466 16.3502 58.1466 17.9873C58.1466 19.6243 58.8724 20.5898 60.082 20.5898C61.2917 20.5898 62.0385 19.6978 62.0385 17.9873ZM66.7193 17.9873C66.7193 14.6082 68.823 12.5828 71.9786 12.5828C75.1342 12.5828 77.2379 14.6082 77.2379 17.9873C77.2379 21.3663 75.1973 23.4127 71.9786 23.4127C68.7599 23.4127 66.7403 21.4398 66.7403 17.9873H66.7193ZM73.893 17.9873C73.893 16.1298 73.1567 15.0384 72.0102 15.0384C70.8636 15.0384 70.1378 16.0878 70.1378 17.9873C70.1378 19.8867 70.8531 20.9256 72.0102 20.9256C73.1672 20.9256 73.914 19.8867 73.914 17.9977L73.893 17.9873ZM78.6053 10.3371C78.5906 9.99394 78.6792 9.65427 78.8596 9.36175C79.04 9.06923 79.304 8.83725 79.6176 8.69566C79.9313 8.55406 80.2802 8.50933 80.6195 8.5672C80.9588 8.62508 81.2731 8.78292 81.5217 9.02043C81.7704 9.25793 81.9422 9.56423 82.0149 9.89992C82.0877 10.2356 82.0581 10.5853 81.9299 10.9041C81.8018 11.2229 81.581 11.4962 81.296 11.6887C81.0109 11.8813 80.6746 11.9843 80.3304 11.9846C80.1104 11.9902 79.8914 11.9521 79.6863 11.8726C79.4812 11.7931 79.2939 11.6737 79.1354 11.5215C78.9769 11.3692 78.8502 11.187 78.7629 10.9855C78.6755 10.7839 78.6291 10.5671 78.6264 10.3476L78.6053 10.3371ZM78.6053 12.8137H82.0239V23.1608H78.6579L78.6053 12.8137ZM94.3202 17.9873C94.3202 21.3559 92.8055 23.3077 90.2284 23.3077C89.5686 23.3483 88.9123 23.186 88.348 22.8425C87.7836 22.4991 87.3386 21.9912 87.0728 21.3873H87.0097V26.4875H83.6332V12.8452H86.9887V14.6921H87.0518C87.3084 14.0764 87.7491 13.5546 88.3138 13.1978C88.8785 12.841 89.5397 12.6665 90.2074 12.6982C92.8581 12.6773 94.3833 14.6187 94.3833 17.9977L94.3202 17.9873ZM90.8806 17.9873C90.8806 16.3502 90.1127 15.2903 88.9241 15.2903C87.7355 15.2903 86.9887 16.3397 86.9781 17.9873C86.9676 19.6348 87.7355 20.6737 88.9241 20.6737C90.1127 20.6737 90.9437 19.6978 90.9437 17.9977L90.8806 17.9873ZM100.084 12.5723C102.914 12.5723 104.67 13.9051 104.692 16.0459H101.61C101.61 15.3008 100.989 14.839 100.063 14.839C99.1377 14.839 98.6959 15.1958 98.6959 15.731C98.6959 16.2662 99.0851 16.4341 99.8635 16.5915L102.03 17.0323C104.134 17.473 104.976 18.3126 104.976 19.8762C104.976 21.975 103.03 23.4022 100.137 23.4022C97.2443 23.4022 95.3615 22.017 95.2248 19.9077H98.496C98.5907 20.6737 99.2008 21.125 100.19 21.125C101.178 21.125 101.641 20.8102 101.641 20.254C101.641 19.6978 101.326 19.6033 100.516 19.4354L98.5592 19.0262C96.5291 18.5959 95.4667 17.536 95.4667 15.9514C95.5298 13.8946 97.2969 12.5828 100.147 12.5828L100.084 12.5723ZM116.283 23.1503H113.012V21.2089H112.949C112.766 21.8565 112.367 22.4225 111.818 22.8135C111.269 23.2046 110.603 23.3974 109.93 23.3602C109.421 23.3767 108.915 23.2858 108.445 23.0934C107.974 22.901 107.549 22.6115 107.199 22.2438C106.848 21.8762 106.579 21.4387 106.41 20.9601C106.241 20.4816 106.175 19.9727 106.217 19.4669V12.8242H109.593V18.7428C109.593 19.9601 110.235 20.6213 111.287 20.6213C111.533 20.6194 111.777 20.5648 112.001 20.461C112.225 20.3572 112.423 20.2068 112.584 20.0197C112.744 19.8327 112.863 19.6135 112.931 19.377C113 19.1404 113.016 18.8919 112.98 18.6484V12.8242H116.346L116.283 23.1503ZM117.913 12.8137H121.195V14.8076H121.269C121.45 14.1688 121.839 13.6081 122.374 13.2131C122.908 12.8182 123.559 12.6113 124.225 12.6248C124.892 12.5669 125.558 12.7595 126.091 13.1652C126.624 13.5708 126.986 14.1601 127.107 14.818H127.254C127.464 14.1566 127.887 13.583 128.458 13.1864C129.029 12.7898 129.715 12.5923 130.41 12.6248C130.871 12.6073 131.332 12.6872 131.76 12.8594C132.189 13.0316 132.576 13.2921 132.897 13.624C133.218 13.9559 133.464 14.3515 133.621 14.7852C133.778 15.2188 133.841 15.6806 133.807 16.1403V23.1608H130.41V17.0008C130.41 15.9514 129.915 15.3637 128.958 15.3637C128.746 15.3603 128.535 15.4026 128.341 15.4879C128.146 15.5732 127.973 15.6994 127.832 15.8579C127.691 16.0164 127.586 16.2034 127.525 16.4061C127.463 16.6088 127.446 16.8224 127.475 17.0323V23.1608H124.256V16.9693C124.256 15.9199 123.741 15.3637 122.815 15.3637C122.601 15.362 122.388 15.4061 122.192 15.4931C121.996 15.58 121.821 15.7078 121.679 15.8678C121.536 16.0278 121.43 16.2164 121.366 16.4209C121.303 16.6253 121.284 16.841 121.311 17.0533V23.1608H117.934L117.913 12.8137Z" fill="#1D2130"></path>
      <path d="M31.7027 10.3687C31.7028 8.28001 31.0706 6.24003 29.8889 4.51591C28.7072 2.79179 27.0312 1.46393 25.0803 0.706256C23.1293 -0.0514219 20.9945 -0.203588 18.9555 0.269686C16.9164 0.742961 15.0681 1.81961 13.6527 3.35861H0.525513V31H28.2421V18.0818C29.3299 17.1111 30.2004 15.9224 30.7967 14.5933C31.393 13.2643 31.7017 11.8248 31.7027 10.3687ZM26.3698 10.3687C26.3718 11.3695 26.0763 12.3485 25.5204 13.1817C24.9646 14.0148 24.1735 14.6648 23.2473 15.0492C22.321 15.4337 21.3013 15.5354 20.3171 15.3414C19.333 15.1474 18.4286 14.6665 17.7185 13.9595C17.0084 13.2525 16.5245 12.3513 16.328 11.3698C16.1315 10.3883 16.2313 9.37078 16.6147 8.44591C16.9982 7.52104 17.648 6.73045 18.482 6.17418C19.3159 5.61792 20.2966 5.321 21.2998 5.321C22.6426 5.321 23.9306 5.85247 24.8811 6.79878C25.8316 7.7451 26.367 9.02897 26.3698 10.3687ZM22.9091 25.6795H5.85845V8.67911H11.0546C10.9543 9.23682 10.9015 9.80203 10.8969 10.3687C10.8997 13.1204 11.9966 15.7586 13.9469 17.7044C15.8972 19.6502 18.5416 20.7445 21.2998 20.7473C21.839 20.7444 22.3772 20.6988 22.9091 20.6109V25.6795Z" fill="#1D2130"></path>
    </g>
  </symbol>
  <symbol fill="none" xmlns="http://www.w3.org/2000/svg" viewBox="0 0 137 31" id="Logo-5">
    <g opacity="0.6">
      <path d="M33.4969 7.2901H36.6525V22.5985H33.4969V7.2901Z" fill="#1D2130"></path>
      <path d="M38.4197 17.3544C38.4197 16.253 38.7444 15.1764 39.3526 14.2611C39.9608 13.3458 40.8251 12.6329 41.836 12.2129C42.8469 11.7929 43.9589 11.6846 45.0309 11.9018C46.103 12.119 47.0869 12.6519 47.8579 13.4329C48.629 14.214 49.1524 15.208 49.3619 16.2889C49.5714 17.3699 49.4575 18.4892 49.0347 19.5049C48.6119 20.5207 47.8992 21.3871 46.9869 21.9944C46.0747 22.6017 45.0039 22.9226 43.9104 22.9163C43.1851 22.922 42.4659 22.7818 41.7952 22.5039C41.1244 22.226 40.5154 21.816 40.004 21.298C39.4926 20.7799 39.089 20.1643 38.817 19.4871C38.5449 18.8099 38.4098 18.0848 38.4197 17.3544ZM46.3297 17.3544C46.3172 16.8796 46.1661 16.419 45.8952 16.0302C45.6242 15.6414 45.2455 15.3418 44.8063 15.1687C44.3671 14.9955 43.887 14.9567 43.426 15.0569C42.9651 15.1572 42.5437 15.3921 42.2145 15.7323C41.8854 16.0725 41.6632 16.5029 41.5757 16.9696C41.4881 17.4364 41.5392 17.9187 41.7224 18.3564C41.9056 18.7941 42.2129 19.1676 42.6058 19.4303C42.9987 19.693 43.4598 19.8332 43.9314 19.8334C44.2525 19.8397 44.5714 19.7792 44.8683 19.6558C45.1651 19.5323 45.4335 19.3485 45.6566 19.1158C45.8797 18.8832 46.0527 18.6067 46.1649 18.3036C46.2771 18.0005 46.326 17.6774 46.3086 17.3544H46.3297Z" fill="#1D2130"></path>
      <path d="M61.8867 12.1104V22.0793C61.8867 25.5965 59.1519 27.0903 56.3855 27.0903C55.4097 27.171 54.431 26.9757 53.5594 26.5265C52.6878 26.0773 51.9581 25.392 51.4523 24.5477L54.1135 23.001C54.3291 23.4389 54.6721 23.8002 55.0969 24.0368C55.5216 24.2734 56.0078 24.374 56.4907 24.3253C56.7983 24.3634 57.1105 24.3327 57.405 24.2352C57.6994 24.1377 57.9689 23.9758 58.194 23.7612C58.4191 23.5466 58.5944 23.2846 58.7072 22.9938C58.8201 22.7031 58.8678 22.3908 58.8468 22.0793V21.1153C58.4796 21.5637 58.0137 21.9197 57.486 22.1551C56.9583 22.3905 56.3834 22.4988 55.807 22.4713C54.4121 22.4713 53.0744 21.9132 52.0881 20.9199C51.1018 19.9265 50.5477 18.5792 50.5477 17.1743C50.5477 15.7695 51.1018 14.4221 52.0881 13.4288C53.0744 12.4354 54.4121 11.8773 55.807 11.8773C56.3834 11.8498 56.9583 11.9581 57.486 12.1935C58.0137 12.4289 58.4796 12.7849 58.8468 13.2333V12.1739L61.8867 12.1104ZM58.8468 17.1425C58.8678 16.6357 58.7378 16.1341 58.4735 15.7023C58.2091 15.2704 57.8226 14.9281 57.3636 14.7193C56.9045 14.5106 56.394 14.4448 55.8975 14.5307C55.4011 14.6165 54.9415 14.8499 54.5779 15.2009C54.2142 15.5519 53.9631 16.0044 53.8569 16.5003C53.7507 16.9962 53.7941 17.5127 53.9817 17.9835C54.1693 18.4543 54.4924 18.8578 54.9095 19.1422C55.3267 19.4265 55.8187 19.5787 56.3224 19.5791C56.651 19.603 56.981 19.5571 57.291 19.4446C57.6009 19.332 57.884 19.1552 58.1219 18.9255C58.3598 18.6959 58.5473 18.4186 58.6721 18.1115C58.797 17.8043 58.8565 17.4743 58.8468 17.1425Z" fill="#1D2130"></path>
      <path d="M63.6643 17.3544C63.6643 16.2539 63.9885 15.1782 64.5957 14.2633C65.203 13.3484 66.0661 12.6356 67.0758 12.2149C68.0854 11.7943 69.1963 11.6847 70.2678 11.9002C71.3393 12.1157 72.3233 12.6464 73.0952 13.4253C73.867 14.2042 74.3922 15.1962 74.604 16.2758C74.8159 17.3554 74.7051 18.4741 74.2855 19.4902C73.8659 20.5063 73.1565 21.3742 72.247 21.9841C71.3374 22.5939 70.2687 22.9184 69.1761 22.9163C68.4494 22.9234 67.7287 22.7843 67.0561 22.5071C66.3835 22.23 65.7726 21.8204 65.2592 21.3024C64.7459 20.7844 64.3404 20.1683 64.0665 19.4904C63.7926 18.8124 63.6559 18.0863 63.6643 17.3544ZM71.5743 17.3544C71.5619 16.8791 71.4105 16.4181 71.1391 16.0291C70.8676 15.6402 70.4883 15.3405 70.0485 15.1677C69.6087 14.9949 69.1281 14.9567 68.6668 15.0578C68.2056 15.1589 67.7842 15.3949 67.4556 15.7361C67.1269 16.0774 66.9055 16.5087 66.8191 16.9762C66.7328 17.4436 66.7853 17.9263 66.9702 18.3637C67.155 18.8012 67.4639 19.174 67.8582 19.4355C68.2524 19.6969 68.7146 19.8353 69.1866 19.8334C69.5077 19.8397 69.8266 19.7792 70.1235 19.6558C70.4203 19.5323 70.6887 19.3485 70.9118 19.1158C71.1349 18.8832 71.3079 18.6067 71.4201 18.3036C71.5323 18.0005 71.5812 17.6774 71.5638 17.3544H71.5743Z" fill="#1D2130"></path>
      <path d="M76.15 9.3029C76.15 8.92994 76.2598 8.56535 76.4655 8.25524C76.6713 7.94513 76.9637 7.70343 77.3058 7.56071C77.6479 7.41798 78.0244 7.38064 78.3876 7.4534C78.7508 7.52616 79.0844 7.70576 79.3462 7.96949C79.6081 8.23321 79.7864 8.56922 79.8586 8.93501C79.9309 9.30081 79.8938 9.67997 79.7521 10.0245C79.6104 10.3691 79.3704 10.6636 79.0625 10.8708C78.7546 11.078 78.3926 11.1886 78.0223 11.1886C77.5274 11.1831 77.0544 10.9827 76.7044 10.6302C76.3545 10.2778 76.1555 9.80132 76.15 9.3029ZM76.455 12.1103H79.6106V22.5984H76.455V12.1103Z" fill="#1D2130"></path>
      <path d="M93.1165 17.3544C93.1518 18.052 93.0499 18.7496 92.8165 19.4073C92.5831 20.065 92.2229 20.6697 91.7566 21.1866C91.2903 21.7035 90.727 22.1225 90.0993 22.4193C89.4716 22.7162 88.7918 22.8851 88.0991 22.9163C87.5112 22.9557 86.9221 22.8609 86.3757 22.6389C85.8293 22.4169 85.3397 22.0736 84.9435 21.6344V26.8149H81.7879V12.1104H84.9435V13.0956C85.3402 12.6578 85.8302 12.316 86.3767 12.0958C86.9231 11.8757 87.512 11.7829 88.0991 11.8244C88.7891 11.8557 89.4662 12.0235 90.0917 12.3184C90.7173 12.6132 91.279 13.0293 91.745 13.5428C92.2109 14.0563 92.5718 14.6572 92.8071 15.3112C93.0424 15.9652 93.1476 16.6595 93.1165 17.3544ZM89.9609 17.3544C89.9484 16.8624 89.7921 16.385 89.5114 15.9821C89.2308 15.5791 88.8382 15.2686 88.3831 15.0894C87.9279 14.9102 87.4304 14.8703 86.9528 14.9747C86.4752 15.0791 86.0389 15.3231 85.6984 15.6763C85.3579 16.0294 85.1285 16.4758 85.039 16.9597C84.9494 17.4435 85.0036 17.9433 85.1948 18.3962C85.386 18.8492 85.7057 19.2352 86.1138 19.506C86.5219 19.7767 87.0003 19.9201 87.489 19.9182C87.8237 19.9325 88.1577 19.8754 88.469 19.7506C88.7802 19.6258 89.0618 19.4361 89.2952 19.1941C89.5286 18.952 89.7086 18.6629 89.8233 18.3459C89.938 18.0289 89.9849 17.691 89.9609 17.3544Z" fill="#1D2130"></path>
      <path d="M102.72 19.452C102.72 21.8674 100.616 22.8951 98.3863 22.8951C97.4768 22.9775 96.5636 22.7833 95.7648 22.3376C94.966 21.8919 94.3183 21.2152 93.9053 20.3949L96.6192 18.8481C96.7267 19.2262 96.9598 19.5555 97.2795 19.7812C97.5993 20.0068 97.9863 20.115 98.3758 20.0876C99.1226 20.0876 99.5013 19.8546 99.5013 19.4308C99.5013 18.2761 94.3787 18.8905 94.3787 15.2568C94.3787 12.9685 96.2931 11.8243 98.4599 11.8243C99.2836 11.7872 100.102 11.9754 100.828 12.3689C101.554 12.7625 102.16 13.3468 102.583 14.0596L99.8694 15.5004C99.7495 15.2271 99.5536 14.9946 99.3054 14.8311C99.0571 14.6675 98.7671 14.5799 98.4704 14.5788C97.9235 14.5788 97.5974 14.7906 97.5974 15.1614C97.5974 16.3691 102.72 15.5746 102.72 19.452Z" fill="#1D2130"></path>
      <path d="M114.154 12.1104V22.5985H110.998V21.6132C110.64 22.0494 110.184 22.3945 109.669 22.6208C109.154 22.8472 108.593 22.9484 108.032 22.9163C105.928 22.9163 104.129 21.4014 104.129 18.5728V12.1104H107.285V18.096C107.26 18.3463 107.29 18.599 107.371 18.8366C107.453 19.0743 107.585 19.2913 107.758 19.4726C107.931 19.6539 108.141 19.7952 108.373 19.8868C108.606 19.9784 108.855 20.018 109.105 20.003C110.241 20.003 111.04 19.3249 111.04 17.8841V12.1104H114.154Z" fill="#1D2130"></path>
      <path d="M132.035 16.1573V22.5984H128.88V16.4327C128.88 15.3733 128.385 14.7165 127.386 14.7165C126.387 14.7165 125.756 15.4475 125.756 16.687V22.5984H122.6V16.4327C122.6 15.3733 122.106 14.7165 121.106 14.7165C120.107 14.7165 119.476 15.4475 119.476 16.687V22.5984H116.32V12.1103H119.476V13.0744C119.803 12.6485 120.23 12.3112 120.718 12.0929C121.206 11.8747 121.741 11.7824 122.274 11.8243C122.808 11.7963 123.339 11.9085 123.817 12.1499C124.295 12.3914 124.702 12.7538 124.998 13.2015C125.345 12.7337 125.804 12.3621 126.332 12.1212C126.859 11.8804 127.439 11.7782 128.017 11.8243C130.479 11.8243 132.035 13.5405 132.035 16.1573Z" fill="#1D2130"></path>
      <path d="M14.7002 4.53566V0.0332031H0.605225V30.9677H14.7002V26.4653C11.8128 26.4653 9.04373 25.3101 7.00206 23.2538C4.9604 21.1975 3.8134 18.4085 3.8134 15.5005C3.8134 12.5924 4.9604 9.80348 7.00206 7.74718C9.04373 5.69088 11.8128 4.53566 14.7002 4.53566Z" fill="#1D2130"></path>
      <path d="M14.7002 4.53566V26.4653C17.5875 26.4653 20.3565 25.3101 22.3982 23.2538C24.4399 21.1975 25.5869 18.4085 25.5869 15.5005C25.5869 12.5924 24.4399 9.80348 22.3982 7.74718C20.3565 5.69088 17.5875 4.53566 14.7002 4.53566Z" fill="#1D2130"></path>
      <path d="M134.686 12.0468C135.964 12.0468 137 11.0033 137 9.71611C137 8.42891 135.964 7.38542 134.686 7.38542C133.408 7.38542 132.372 8.42891 132.372 9.71611C132.372 11.0033 133.408 12.0468 134.686 12.0468Z" fill="#1D2130"></path>
    </g>
  </symbol>
</svg>